<mxfile host="app.diagrams.net" modified="2024-02-15T00:24:29.458Z" agent="Mozilla/5.0 (Macintosh; Intel Mac OS X 10_15_7) AppleWebKit/537.36 (KHTML, like Gecko) Chrome/117.0.0.0 Safari/537.36" version="22.1.17" etag="xqQ_hutD95Oe110vicu1" type="github">
  <diagram name="第 1 页" id="48vir77CrZDihmFAOrLt">
    <mxGraphModel>
      <root>
        <mxCell id="0" />
        <mxCell id="1" parent="0" />
      </root>
    </mxGraphModel>
  </diagram>
</mxfile>
